<mxfile host="app.diagrams.net" agent="Mozilla/5.0 (Windows NT 10.0; Win64; x64) AppleWebKit/537.36 (KHTML, like Gecko) Chrome/131.0.0.0 Safari/537.36 Edg/131.0.0.0" version="25.0.3" pages="2">
  <diagram id="C5RBs43oDa-KdzZeNtuy" name="Page-1">
    <mxGraphModel dx="2079" dy="1865" grid="1" gridSize="10" guides="1" tooltips="1" connect="1" arrows="1" fold="1" page="1" pageScale="1" pageWidth="827" pageHeight="1169" math="0" shadow="0">
      <root>
        <mxCell id="WIyWlLk6GJQsqaUBKTNV-0" />
        <mxCell id="WIyWlLk6GJQsqaUBKTNV-1" parent="WIyWlLk6GJQsqaUBKTNV-0" />
        <mxCell id="soWW_ZqdvupLJVpwj8kI-0" value="User" style="swimlane;fontStyle=2;align=center;verticalAlign=top;childLayout=stackLayout;horizontal=1;startSize=26;horizontalStack=0;resizeParent=1;resizeLast=0;collapsible=1;marginBottom=0;rounded=0;shadow=0;strokeWidth=1;" parent="WIyWlLk6GJQsqaUBKTNV-1" vertex="1">
          <mxGeometry x="120" y="730" width="200" height="190" as="geometry">
            <mxRectangle x="200" y="60" width="160" height="26" as="alternateBounds" />
          </mxGeometry>
        </mxCell>
        <mxCell id="soWW_ZqdvupLJVpwj8kI-93" value="-userID: integer" style="text;align=left;verticalAlign=top;spacingLeft=4;spacingRight=4;overflow=hidden;rotatable=0;points=[[0,0.5],[1,0.5]];portConstraint=eastwest;rounded=0;shadow=0;html=0;" parent="soWW_ZqdvupLJVpwj8kI-0" vertex="1">
          <mxGeometry y="26" width="200" height="26" as="geometry" />
        </mxCell>
        <mxCell id="soWW_ZqdvupLJVpwj8kI-2" value="-username: string" style="text;align=left;verticalAlign=top;spacingLeft=4;spacingRight=4;overflow=hidden;rotatable=0;points=[[0,0.5],[1,0.5]];portConstraint=eastwest;" parent="soWW_ZqdvupLJVpwj8kI-0" vertex="1">
          <mxGeometry y="52" width="200" height="26" as="geometry" />
        </mxCell>
        <mxCell id="Kl_dRkSv7i4Bv8vPfmTF-9" value="-email: string" style="text;align=left;verticalAlign=top;spacingLeft=4;spacingRight=4;overflow=hidden;rotatable=0;points=[[0,0.5],[1,0.5]];portConstraint=eastwest;rounded=0;shadow=0;html=0;" parent="soWW_ZqdvupLJVpwj8kI-0" vertex="1">
          <mxGeometry y="78" width="200" height="26" as="geometry" />
        </mxCell>
        <mxCell id="Kl_dRkSv7i4Bv8vPfmTF-8" value="-phoneNumber: string" style="text;align=left;verticalAlign=top;spacingLeft=4;spacingRight=4;overflow=hidden;rotatable=0;points=[[0,0.5],[1,0.5]];portConstraint=eastwest;rounded=0;shadow=0;html=0;" parent="soWW_ZqdvupLJVpwj8kI-0" vertex="1">
          <mxGeometry y="104" width="200" height="26" as="geometry" />
        </mxCell>
        <mxCell id="soWW_ZqdvupLJVpwj8kI-47" value="-hashPassword: string&#xa;-PressCart:string" style="text;align=left;verticalAlign=top;spacingLeft=4;spacingRight=4;overflow=hidden;rotatable=0;points=[[0,0.5],[1,0.5]];portConstraint=eastwest;rounded=0;shadow=0;html=0;" parent="soWW_ZqdvupLJVpwj8kI-0" vertex="1">
          <mxGeometry y="130" width="200" height="40" as="geometry" />
        </mxCell>
        <mxCell id="soWW_ZqdvupLJVpwj8kI-3" value="" style="line;html=1;strokeWidth=1;align=left;verticalAlign=middle;spacingTop=-1;spacingLeft=3;spacingRight=3;rotatable=0;labelPosition=right;points=[];portConstraint=eastwest;" parent="soWW_ZqdvupLJVpwj8kI-0" vertex="1">
          <mxGeometry y="170" width="200" height="20" as="geometry" />
        </mxCell>
        <mxCell id="soWW_ZqdvupLJVpwj8kI-9" value="" style="endArrow=block;endSize=10;endFill=0;shadow=0;strokeWidth=1;rounded=0;edgeStyle=elbowEdgeStyle;elbow=vertical;exitX=0.5;exitY=0;exitDx=0;exitDy=0;entryX=0.5;entryY=1;entryDx=0;entryDy=0;" parent="WIyWlLk6GJQsqaUBKTNV-1" source="soWW_ZqdvupLJVpwj8kI-10" target="soWW_ZqdvupLJVpwj8kI-0" edge="1">
          <mxGeometry width="160" relative="1" as="geometry">
            <mxPoint x="80" y="1020" as="sourcePoint" />
            <mxPoint x="200" y="1020" as="targetPoint" />
            <Array as="points">
              <mxPoint x="160" y="1030" />
            </Array>
          </mxGeometry>
        </mxCell>
        <mxCell id="soWW_ZqdvupLJVpwj8kI-10" value="Shef-redactor&#xa;" style="swimlane;fontStyle=2;align=center;verticalAlign=top;childLayout=stackLayout;horizontal=1;startSize=26;horizontalStack=0;resizeParent=1;resizeLast=0;collapsible=1;marginBottom=0;rounded=0;shadow=0;strokeWidth=1;" parent="WIyWlLk6GJQsqaUBKTNV-1" vertex="1">
          <mxGeometry x="-40" y="1070" width="230" height="220" as="geometry">
            <mxRectangle x="200" y="60" width="160" height="26" as="alternateBounds" />
          </mxGeometry>
        </mxCell>
        <mxCell id="soWW_ZqdvupLJVpwj8kI-13" value="" style="line;html=1;strokeWidth=1;align=left;verticalAlign=middle;spacingTop=-1;spacingLeft=3;spacingRight=3;rotatable=0;labelPosition=right;points=[];portConstraint=eastwest;" parent="soWW_ZqdvupLJVpwj8kI-10" vertex="1">
          <mxGeometry y="26" width="230" height="20" as="geometry" />
        </mxCell>
        <mxCell id="soWW_ZqdvupLJVpwj8kI-92" value="+ChangeClientStatus(userID:integer)" style="text;align=left;verticalAlign=top;spacingLeft=4;spacingRight=4;overflow=hidden;rotatable=0;points=[[0,0.5],[1,0.5]];portConstraint=eastwest;" parent="soWW_ZqdvupLJVpwj8kI-10" vertex="1">
          <mxGeometry y="46" width="230" height="20" as="geometry" />
        </mxCell>
        <mxCell id="soWW_ZqdvupLJVpwj8kI-95" value="+SetClientStatus(userID:integer)" style="text;align=left;verticalAlign=top;spacingLeft=4;spacingRight=4;overflow=hidden;rotatable=0;points=[[0,0.5],[1,0.5]];portConstraint=eastwest;" parent="soWW_ZqdvupLJVpwj8kI-10" vertex="1">
          <mxGeometry y="66" width="230" height="20" as="geometry" />
        </mxCell>
        <mxCell id="soWW_ZqdvupLJVpwj8kI-132" style="edgeStyle=orthogonalEdgeStyle;rounded=0;orthogonalLoop=1;jettySize=auto;html=1;exitX=0.5;exitY=1;exitDx=0;exitDy=0;entryX=0.5;entryY=0;entryDx=0;entryDy=0;" parent="WIyWlLk6GJQsqaUBKTNV-1" source="soWW_ZqdvupLJVpwj8kI-19" target="soWW_ZqdvupLJVpwj8kI-125" edge="1">
          <mxGeometry relative="1" as="geometry" />
        </mxCell>
        <mxCell id="soWW_ZqdvupLJVpwj8kI-19" value="redactor" style="swimlane;fontStyle=2;align=center;verticalAlign=top;childLayout=stackLayout;horizontal=1;startSize=26;horizontalStack=0;resizeParent=1;resizeLast=0;collapsible=1;marginBottom=0;rounded=0;shadow=0;strokeWidth=1;" parent="WIyWlLk6GJQsqaUBKTNV-1" vertex="1">
          <mxGeometry x="220" y="1060" width="200" height="220" as="geometry">
            <mxRectangle x="200" y="60" width="160" height="26" as="alternateBounds" />
          </mxGeometry>
        </mxCell>
        <mxCell id="soWW_ZqdvupLJVpwj8kI-96" value="-userStatus: string" style="text;align=left;verticalAlign=top;spacingLeft=4;spacingRight=4;overflow=hidden;rotatable=0;points=[[0,0.5],[1,0.5]];portConstraint=eastwest;rounded=0;shadow=0;html=0;" parent="soWW_ZqdvupLJVpwj8kI-19" vertex="1">
          <mxGeometry y="26" width="200" height="26" as="geometry" />
        </mxCell>
        <mxCell id="soWW_ZqdvupLJVpwj8kI-22" value="" style="line;html=1;strokeWidth=1;align=left;verticalAlign=middle;spacingTop=-1;spacingLeft=3;spacingRight=3;rotatable=0;labelPosition=right;points=[];portConstraint=eastwest;" parent="soWW_ZqdvupLJVpwj8kI-19" vertex="1">
          <mxGeometry y="52" width="200" height="20" as="geometry" />
        </mxCell>
        <mxCell id="soWW_ZqdvupLJVpwj8kI-25" value="+AddNews(NewsID:news)" style="text;align=left;verticalAlign=top;spacingLeft=4;spacingRight=4;overflow=hidden;rotatable=0;points=[[0,0.5],[1,0.5]];portConstraint=eastwest;" parent="soWW_ZqdvupLJVpwj8kI-19" vertex="1">
          <mxGeometry y="72" width="200" height="20" as="geometry" />
        </mxCell>
        <mxCell id="soWW_ZqdvupLJVpwj8kI-97" value="+AddVideo(Video)&#xa;+ AddPhoto(Photo)&#xa;+AddText(Text:string)&#xa;" style="text;align=left;verticalAlign=top;spacingLeft=4;spacingRight=4;overflow=hidden;rotatable=0;points=[[0,0.5],[1,0.5]];portConstraint=eastwest;" parent="soWW_ZqdvupLJVpwj8kI-19" vertex="1">
          <mxGeometry y="92" width="200" height="98" as="geometry" />
        </mxCell>
        <mxCell id="soWW_ZqdvupLJVpwj8kI-28" value="Client_Profile_Controller" style="swimlane;fontStyle=2;align=center;verticalAlign=top;childLayout=stackLayout;horizontal=1;startSize=26;horizontalStack=0;resizeParent=1;resizeLast=0;collapsible=1;marginBottom=0;rounded=0;shadow=0;strokeWidth=1;" parent="WIyWlLk6GJQsqaUBKTNV-1" vertex="1">
          <mxGeometry x="530" y="1030" width="260" height="310" as="geometry">
            <mxRectangle x="200" y="60" width="160" height="26" as="alternateBounds" />
          </mxGeometry>
        </mxCell>
        <mxCell id="soWW_ZqdvupLJVpwj8kI-33" value="" style="line;html=1;strokeWidth=1;align=left;verticalAlign=middle;spacingTop=-1;spacingLeft=3;spacingRight=3;rotatable=0;labelPosition=right;points=[];portConstraint=eastwest;" parent="soWW_ZqdvupLJVpwj8kI-28" vertex="1">
          <mxGeometry y="26" width="260" height="20" as="geometry" />
        </mxCell>
        <mxCell id="soWW_ZqdvupLJVpwj8kI-34" value="+ChangeUsername(username:string)" style="text;align=left;verticalAlign=top;spacingLeft=4;spacingRight=4;overflow=hidden;rotatable=0;points=[[0,0.5],[1,0.5]];portConstraint=eastwest;" parent="soWW_ZqdvupLJVpwj8kI-28" vertex="1">
          <mxGeometry y="46" width="260" height="20" as="geometry" />
        </mxCell>
        <mxCell id="soWW_ZqdvupLJVpwj8kI-37" value="+SetName(username:string)" style="text;align=left;verticalAlign=top;spacingLeft=4;spacingRight=4;overflow=hidden;rotatable=0;points=[[0,0.5],[1,0.5]];portConstraint=eastwest;" parent="soWW_ZqdvupLJVpwj8kI-28" vertex="1">
          <mxGeometry y="66" width="260" height="20" as="geometry" />
        </mxCell>
        <mxCell id="soWW_ZqdvupLJVpwj8kI-39" value="+ChangePhoneNumber(phoneNumber:string)" style="text;align=left;verticalAlign=top;spacingLeft=4;spacingRight=4;overflow=hidden;rotatable=0;points=[[0,0.5],[1,0.5]];portConstraint=eastwest;" parent="soWW_ZqdvupLJVpwj8kI-28" vertex="1">
          <mxGeometry y="86" width="260" height="20" as="geometry" />
        </mxCell>
        <mxCell id="soWW_ZqdvupLJVpwj8kI-40" value="+GetPhoneNumber():string" style="text;align=left;verticalAlign=top;spacingLeft=4;spacingRight=4;overflow=hidden;rotatable=0;points=[[0,0.5],[1,0.5]];portConstraint=eastwest;" parent="soWW_ZqdvupLJVpwj8kI-28" vertex="1">
          <mxGeometry y="106" width="260" height="20" as="geometry" />
        </mxCell>
        <mxCell id="soWW_ZqdvupLJVpwj8kI-41" value="+SetPhoneNumber(phoneNumber:string)" style="text;align=left;verticalAlign=top;spacingLeft=4;spacingRight=4;overflow=hidden;rotatable=0;points=[[0,0.5],[1,0.5]];portConstraint=eastwest;" parent="soWW_ZqdvupLJVpwj8kI-28" vertex="1">
          <mxGeometry y="126" width="260" height="20" as="geometry" />
        </mxCell>
        <mxCell id="soWW_ZqdvupLJVpwj8kI-42" value="+GetEmail():string" style="text;align=left;verticalAlign=top;spacingLeft=4;spacingRight=4;overflow=hidden;rotatable=0;points=[[0,0.5],[1,0.5]];portConstraint=eastwest;" parent="soWW_ZqdvupLJVpwj8kI-28" vertex="1">
          <mxGeometry y="146" width="260" height="20" as="geometry" />
        </mxCell>
        <mxCell id="soWW_ZqdvupLJVpwj8kI-43" value="+SetEmail(email:string)" style="text;align=left;verticalAlign=top;spacingLeft=4;spacingRight=4;overflow=hidden;rotatable=0;points=[[0,0.5],[1,0.5]];portConstraint=eastwest;" parent="soWW_ZqdvupLJVpwj8kI-28" vertex="1">
          <mxGeometry y="166" width="260" height="20" as="geometry" />
        </mxCell>
        <mxCell id="soWW_ZqdvupLJVpwj8kI-44" value="+ChangeEmail(email:string)" style="text;align=left;verticalAlign=top;spacingLeft=4;spacingRight=4;overflow=hidden;rotatable=0;points=[[0,0.5],[1,0.5]];portConstraint=eastwest;" parent="soWW_ZqdvupLJVpwj8kI-28" vertex="1">
          <mxGeometry y="186" width="260" height="20" as="geometry" />
        </mxCell>
        <mxCell id="soWW_ZqdvupLJVpwj8kI-94" value="+GetStatus():string" style="text;align=left;verticalAlign=top;spacingLeft=4;spacingRight=4;overflow=hidden;rotatable=0;points=[[0,0.5],[1,0.5]];portConstraint=eastwest;" parent="soWW_ZqdvupLJVpwj8kI-28" vertex="1">
          <mxGeometry y="206" width="260" height="20" as="geometry" />
        </mxCell>
        <mxCell id="zk5DPAXzlU95gx_9rlEm-8" value="+ChangePressCart():string" style="text;align=left;verticalAlign=top;spacingLeft=4;spacingRight=4;overflow=hidden;rotatable=0;points=[[0,0.5],[1,0.5]];portConstraint=eastwest;" parent="soWW_ZqdvupLJVpwj8kI-28" vertex="1">
          <mxGeometry y="226" width="260" height="20" as="geometry" />
        </mxCell>
        <mxCell id="zk5DPAXzlU95gx_9rlEm-9" value="+GetPressCart():string" style="text;align=left;verticalAlign=top;spacingLeft=4;spacingRight=4;overflow=hidden;rotatable=0;points=[[0,0.5],[1,0.5]];portConstraint=eastwest;" parent="soWW_ZqdvupLJVpwj8kI-28" vertex="1">
          <mxGeometry y="246" width="260" height="20" as="geometry" />
        </mxCell>
        <mxCell id="zk5DPAXzlU95gx_9rlEm-11" value="+SetPressCart():string" style="text;align=left;verticalAlign=top;spacingLeft=4;spacingRight=4;overflow=hidden;rotatable=0;points=[[0,0.5],[1,0.5]];portConstraint=eastwest;" parent="soWW_ZqdvupLJVpwj8kI-28" vertex="1">
          <mxGeometry y="266" width="260" height="20" as="geometry" />
        </mxCell>
        <mxCell id="soWW_ZqdvupLJVpwj8kI-8" value="" style="endArrow=block;endSize=10;endFill=0;shadow=0;strokeWidth=1;rounded=0;edgeStyle=elbowEdgeStyle;elbow=vertical;exitX=0.5;exitY=0;exitDx=0;exitDy=0;entryX=0.5;entryY=1;entryDx=0;entryDy=0;" parent="WIyWlLk6GJQsqaUBKTNV-1" source="soWW_ZqdvupLJVpwj8kI-19" target="soWW_ZqdvupLJVpwj8kI-0" edge="1">
          <mxGeometry width="160" relative="1" as="geometry">
            <mxPoint x="340" y="1035.9999999999998" as="sourcePoint" />
            <mxPoint x="240" y="936" as="targetPoint" />
            <Array as="points" />
          </mxGeometry>
        </mxCell>
        <mxCell id="soWW_ZqdvupLJVpwj8kI-51" value="" style="endArrow=block;dashed=1;endFill=0;endSize=12;html=1;rounded=0;entryX=0;entryY=0.5;entryDx=0;entryDy=0;exitX=1.011;exitY=0.096;exitDx=0;exitDy=0;exitPerimeter=0;" parent="WIyWlLk6GJQsqaUBKTNV-1" source="soWW_ZqdvupLJVpwj8kI-19" target="soWW_ZqdvupLJVpwj8kI-39" edge="1">
          <mxGeometry width="160" relative="1" as="geometry">
            <mxPoint x="440" y="1140" as="sourcePoint" />
            <mxPoint x="530" y="1140" as="targetPoint" />
          </mxGeometry>
        </mxCell>
        <mxCell id="soWW_ZqdvupLJVpwj8kI-81" style="edgeStyle=orthogonalEdgeStyle;rounded=0;orthogonalLoop=1;jettySize=auto;html=1;exitX=0.75;exitY=0;exitDx=0;exitDy=0;entryX=0.5;entryY=1;entryDx=0;entryDy=0;" parent="WIyWlLk6GJQsqaUBKTNV-1" source="soWW_ZqdvupLJVpwj8kI-52" target="soWW_ZqdvupLJVpwj8kI-70" edge="1">
          <mxGeometry relative="1" as="geometry" />
        </mxCell>
        <mxCell id="soWW_ZqdvupLJVpwj8kI-52" value="PressCart" style="swimlane;fontStyle=0;align=center;verticalAlign=top;childLayout=stackLayout;horizontal=1;startSize=26;horizontalStack=0;resizeParent=1;resizeLast=0;collapsible=1;marginBottom=0;rounded=0;shadow=0;strokeWidth=1;" parent="WIyWlLk6GJQsqaUBKTNV-1" vertex="1">
          <mxGeometry x="730" y="1370" width="170" height="86" as="geometry">
            <mxRectangle x="550" y="140" width="160" height="26" as="alternateBounds" />
          </mxGeometry>
        </mxCell>
        <mxCell id="soWW_ZqdvupLJVpwj8kI-1" value="-userID: integer" style="text;align=left;verticalAlign=top;spacingLeft=4;spacingRight=4;overflow=hidden;rotatable=0;points=[[0,0.5],[1,0.5]];portConstraint=eastwest;rounded=0;shadow=0;html=0;" parent="soWW_ZqdvupLJVpwj8kI-52" vertex="1">
          <mxGeometry y="26" width="170" height="26" as="geometry" />
        </mxCell>
        <mxCell id="soWW_ZqdvupLJVpwj8kI-61" value="-presscart: string" style="text;align=left;verticalAlign=top;spacingLeft=4;spacingRight=4;overflow=hidden;rotatable=0;points=[[0,0.5],[1,0.5]];portConstraint=eastwest;rounded=0;shadow=0;html=0;" parent="soWW_ZqdvupLJVpwj8kI-52" vertex="1">
          <mxGeometry y="52" width="170" height="26" as="geometry" />
        </mxCell>
        <mxCell id="soWW_ZqdvupLJVpwj8kI-58" value="" style="line;html=1;strokeWidth=1;align=left;verticalAlign=middle;spacingTop=-1;spacingLeft=3;spacingRight=3;rotatable=0;labelPosition=right;points=[];portConstraint=eastwest;" parent="soWW_ZqdvupLJVpwj8kI-52" vertex="1">
          <mxGeometry y="78" width="170" height="8" as="geometry" />
        </mxCell>
        <mxCell id="soWW_ZqdvupLJVpwj8kI-62" value="News" style="swimlane;fontStyle=2;align=center;verticalAlign=top;childLayout=stackLayout;horizontal=1;startSize=26;horizontalStack=0;resizeParent=1;resizeLast=0;collapsible=1;marginBottom=0;rounded=0;shadow=0;strokeWidth=1;" parent="WIyWlLk6GJQsqaUBKTNV-1" vertex="1">
          <mxGeometry x="910" y="780" width="230" height="210" as="geometry">
            <mxRectangle x="200" y="60" width="160" height="26" as="alternateBounds" />
          </mxGeometry>
        </mxCell>
        <mxCell id="soWW_ZqdvupLJVpwj8kI-63" value="-NewsID: integer" style="text;align=left;verticalAlign=top;spacingLeft=4;spacingRight=4;overflow=hidden;rotatable=0;points=[[0,0.5],[1,0.5]];portConstraint=eastwest;rounded=0;shadow=0;html=0;" parent="soWW_ZqdvupLJVpwj8kI-62" vertex="1">
          <mxGeometry y="26" width="230" height="26" as="geometry" />
        </mxCell>
        <mxCell id="soWW_ZqdvupLJVpwj8kI-64" value="+newsName: string" style="text;align=left;verticalAlign=top;spacingLeft=4;spacingRight=4;overflow=hidden;rotatable=0;points=[[0,0.5],[1,0.5]];portConstraint=eastwest;" parent="soWW_ZqdvupLJVpwj8kI-62" vertex="1">
          <mxGeometry y="52" width="230" height="26" as="geometry" />
        </mxCell>
        <mxCell id="soWW_ZqdvupLJVpwj8kI-65" value="+ListSessions: List&lt;Sessions&gt;" style="text;align=left;verticalAlign=top;spacingLeft=4;spacingRight=4;overflow=hidden;rotatable=0;points=[[0,0.5],[1,0.5]];portConstraint=eastwest;" parent="soWW_ZqdvupLJVpwj8kI-62" vertex="1">
          <mxGeometry y="78" width="230" height="26" as="geometry" />
        </mxCell>
        <mxCell id="soWW_ZqdvupLJVpwj8kI-98" value="+ListReviews: List&lt;Review&gt;" style="text;align=left;verticalAlign=top;spacingLeft=4;spacingRight=4;overflow=hidden;rotatable=0;points=[[0,0.5],[1,0.5]];portConstraint=eastwest;" parent="soWW_ZqdvupLJVpwj8kI-62" vertex="1">
          <mxGeometry y="104" width="230" height="26" as="geometry" />
        </mxCell>
        <mxCell id="zk5DPAXzlU95gx_9rlEm-13" value="+NewsGeo: string" style="text;align=left;verticalAlign=top;spacingLeft=4;spacingRight=4;overflow=hidden;rotatable=0;points=[[0,0.5],[1,0.5]];portConstraint=eastwest;" parent="soWW_ZqdvupLJVpwj8kI-62" vertex="1">
          <mxGeometry y="130" width="230" height="46" as="geometry" />
        </mxCell>
        <mxCell id="soWW_ZqdvupLJVpwj8kI-66" value="" style="line;html=1;strokeWidth=1;align=left;verticalAlign=middle;spacingTop=-1;spacingLeft=3;spacingRight=3;rotatable=0;labelPosition=right;points=[];portConstraint=eastwest;" parent="soWW_ZqdvupLJVpwj8kI-62" vertex="1">
          <mxGeometry y="176" width="230" height="20" as="geometry" />
        </mxCell>
        <mxCell id="soWW_ZqdvupLJVpwj8kI-70" value="News_Controller" style="swimlane;fontStyle=2;align=center;verticalAlign=top;childLayout=stackLayout;horizontal=1;startSize=26;horizontalStack=0;resizeParent=1;resizeLast=0;collapsible=1;marginBottom=0;rounded=0;shadow=0;strokeWidth=1;" parent="WIyWlLk6GJQsqaUBKTNV-1" vertex="1">
          <mxGeometry x="880" y="1085" width="250" height="170" as="geometry">
            <mxRectangle x="200" y="60" width="160" height="26" as="alternateBounds" />
          </mxGeometry>
        </mxCell>
        <mxCell id="soWW_ZqdvupLJVpwj8kI-74" value="" style="line;html=1;strokeWidth=1;align=left;verticalAlign=middle;spacingTop=-1;spacingLeft=3;spacingRight=3;rotatable=0;labelPosition=right;points=[];portConstraint=eastwest;" parent="soWW_ZqdvupLJVpwj8kI-70" vertex="1">
          <mxGeometry y="26" width="250" height="20" as="geometry" />
        </mxCell>
        <mxCell id="soWW_ZqdvupLJVpwj8kI-75" value="+ChangeNewsName(username:string)" style="text;align=left;verticalAlign=top;spacingLeft=4;spacingRight=4;overflow=hidden;rotatable=0;points=[[0,0.5],[1,0.5]];portConstraint=eastwest;" parent="soWW_ZqdvupLJVpwj8kI-70" vertex="1">
          <mxGeometry y="46" width="250" height="20" as="geometry" />
        </mxCell>
        <mxCell id="soWW_ZqdvupLJVpwj8kI-76" value="+GetNewsName():string" style="text;align=left;verticalAlign=top;spacingLeft=4;spacingRight=4;overflow=hidden;rotatable=0;points=[[0,0.5],[1,0.5]];portConstraint=eastwest;" parent="soWW_ZqdvupLJVpwj8kI-70" vertex="1">
          <mxGeometry y="66" width="250" height="20" as="geometry" />
        </mxCell>
        <mxCell id="zk5DPAXzlU95gx_9rlEm-15" value="+GetNewsGeo():string" style="text;align=left;verticalAlign=top;spacingLeft=4;spacingRight=4;overflow=hidden;rotatable=0;points=[[0,0.5],[1,0.5]];portConstraint=eastwest;" parent="soWW_ZqdvupLJVpwj8kI-70" vertex="1">
          <mxGeometry y="86" width="250" height="20" as="geometry" />
        </mxCell>
        <mxCell id="GcpcCNUzEOuJ6NHcSgfP-0" value="+GetText(newsID:integer):text" style="text;align=left;verticalAlign=top;spacingLeft=4;spacingRight=4;overflow=hidden;rotatable=0;points=[[0,0.5],[1,0.5]];portConstraint=eastwest;" parent="soWW_ZqdvupLJVpwj8kI-70" vertex="1">
          <mxGeometry y="106" width="250" height="64" as="geometry" />
        </mxCell>
        <mxCell id="soWW_ZqdvupLJVpwj8kI-80" style="edgeStyle=orthogonalEdgeStyle;rounded=0;orthogonalLoop=1;jettySize=auto;html=1;exitX=0.5;exitY=0;exitDx=0;exitDy=0;entryX=0.5;entryY=1;entryDx=0;entryDy=0;" parent="WIyWlLk6GJQsqaUBKTNV-1" source="soWW_ZqdvupLJVpwj8kI-52" target="soWW_ZqdvupLJVpwj8kI-28" edge="1">
          <mxGeometry relative="1" as="geometry">
            <mxPoint x="810" y="1380" as="sourcePoint" />
            <mxPoint x="660" y="1290" as="targetPoint" />
            <Array as="points">
              <mxPoint x="810" y="1370" />
              <mxPoint x="810" y="1340" />
              <mxPoint x="660" y="1340" />
            </Array>
          </mxGeometry>
        </mxCell>
        <mxCell id="soWW_ZqdvupLJVpwj8kI-82" value="Account service" style="swimlane;fontStyle=2;align=center;verticalAlign=top;childLayout=stackLayout;horizontal=1;startSize=26;horizontalStack=0;resizeParent=1;resizeLast=0;collapsible=1;marginBottom=0;rounded=0;shadow=0;strokeWidth=1;" parent="WIyWlLk6GJQsqaUBKTNV-1" vertex="1">
          <mxGeometry x="420" y="780" width="300" height="150" as="geometry">
            <mxRectangle x="200" y="60" width="160" height="26" as="alternateBounds" />
          </mxGeometry>
        </mxCell>
        <mxCell id="soWW_ZqdvupLJVpwj8kI-87" value="" style="line;html=1;strokeWidth=1;align=left;verticalAlign=middle;spacingTop=-1;spacingLeft=3;spacingRight=3;rotatable=0;labelPosition=right;points=[];portConstraint=eastwest;" parent="soWW_ZqdvupLJVpwj8kI-82" vertex="1">
          <mxGeometry y="26" width="300" height="20" as="geometry" />
        </mxCell>
        <mxCell id="soWW_ZqdvupLJVpwj8kI-88" value="+SignUp(email:string.hashPassword:string, PressCart): user" style="text;align=left;verticalAlign=top;spacingLeft=4;spacingRight=4;overflow=hidden;rotatable=0;points=[[0,0.5],[1,0.5]];portConstraint=eastwest;" parent="soWW_ZqdvupLJVpwj8kI-82" vertex="1">
          <mxGeometry y="46" width="300" height="20" as="geometry" />
        </mxCell>
        <mxCell id="soWW_ZqdvupLJVpwj8kI-103" value="+SignIn (user:string.hashPassword:string)&#xa;" style="text;align=left;verticalAlign=top;spacingLeft=4;spacingRight=4;overflow=hidden;rotatable=0;points=[[0,0.5],[1,0.5]];portConstraint=eastwest;" parent="soWW_ZqdvupLJVpwj8kI-82" vertex="1">
          <mxGeometry y="66" width="300" height="20" as="geometry" />
        </mxCell>
        <mxCell id="soWW_ZqdvupLJVpwj8kI-104" value="+SignOut(sampleUser:user)" style="text;align=left;verticalAlign=top;spacingLeft=4;spacingRight=4;overflow=hidden;rotatable=0;points=[[0,0.5],[1,0.5]];portConstraint=eastwest;" parent="soWW_ZqdvupLJVpwj8kI-82" vertex="1">
          <mxGeometry y="86" width="300" height="20" as="geometry" />
        </mxCell>
        <mxCell id="soWW_ZqdvupLJVpwj8kI-101" value="" style="endArrow=block;dashed=1;endFill=0;endSize=12;html=1;rounded=0;entryX=0.5;entryY=0;entryDx=0;entryDy=0;exitX=0.5;exitY=1;exitDx=0;exitDy=0;" parent="WIyWlLk6GJQsqaUBKTNV-1" source="soWW_ZqdvupLJVpwj8kI-62" target="soWW_ZqdvupLJVpwj8kI-70" edge="1">
          <mxGeometry width="160" relative="1" as="geometry">
            <mxPoint x="952" y="970" as="sourcePoint" />
            <mxPoint x="1060" y="1035" as="targetPoint" />
          </mxGeometry>
        </mxCell>
        <mxCell id="soWW_ZqdvupLJVpwj8kI-106" style="edgeStyle=orthogonalEdgeStyle;rounded=0;orthogonalLoop=1;jettySize=auto;html=1;exitX=1;exitY=0.5;exitDx=0;exitDy=0;entryX=0;entryY=0.5;entryDx=0;entryDy=0;" parent="WIyWlLk6GJQsqaUBKTNV-1" source="Kl_dRkSv7i4Bv8vPfmTF-9" target="soWW_ZqdvupLJVpwj8kI-104" edge="1">
          <mxGeometry relative="1" as="geometry" />
        </mxCell>
        <mxCell id="soWW_ZqdvupLJVpwj8kI-107" value="use" style="edgeLabel;html=1;align=center;verticalAlign=middle;resizable=0;points=[];" parent="soWW_ZqdvupLJVpwj8kI-106" vertex="1" connectable="0">
          <mxGeometry x="-0.2622" y="1" relative="1" as="geometry">
            <mxPoint as="offset" />
          </mxGeometry>
        </mxCell>
        <mxCell id="soWW_ZqdvupLJVpwj8kI-134" style="edgeStyle=orthogonalEdgeStyle;rounded=0;orthogonalLoop=1;jettySize=auto;html=1;exitX=0.5;exitY=1;exitDx=0;exitDy=0;entryX=1;entryY=0.25;entryDx=0;entryDy=0;" parent="WIyWlLk6GJQsqaUBKTNV-1" source="soWW_ZqdvupLJVpwj8kI-118" target="soWW_ZqdvupLJVpwj8kI-82" edge="1">
          <mxGeometry relative="1" as="geometry">
            <Array as="points">
              <mxPoint x="870" y="640" />
              <mxPoint x="870" y="820" />
              <mxPoint x="770" y="820" />
              <mxPoint x="770" y="818" />
            </Array>
          </mxGeometry>
        </mxCell>
        <mxCell id="soWW_ZqdvupLJVpwj8kI-118" value="UserManager" style="swimlane;fontStyle=2;align=center;verticalAlign=top;childLayout=stackLayout;horizontal=1;startSize=26;horizontalStack=0;resizeParent=1;resizeLast=0;collapsible=1;marginBottom=0;rounded=0;shadow=0;strokeWidth=1;" parent="WIyWlLk6GJQsqaUBKTNV-1" vertex="1">
          <mxGeometry x="730" y="450" width="330" height="216" as="geometry">
            <mxRectangle x="200" y="60" width="160" height="26" as="alternateBounds" />
          </mxGeometry>
        </mxCell>
        <mxCell id="Q65ItB4DhM4sFBB4FkkV-2" value="-users: List&lt;user&gt;" style="text;align=left;verticalAlign=top;spacingLeft=4;spacingRight=4;overflow=hidden;rotatable=0;points=[[0,0.5],[1,0.5]];portConstraint=eastwest;" parent="soWW_ZqdvupLJVpwj8kI-118" vertex="1">
          <mxGeometry y="26" width="330" height="44" as="geometry" />
        </mxCell>
        <mxCell id="soWW_ZqdvupLJVpwj8kI-124" value="" style="line;html=1;strokeWidth=1;align=left;verticalAlign=middle;spacingTop=-1;spacingLeft=3;spacingRight=3;rotatable=0;labelPosition=right;points=[];portConstraint=eastwest;" parent="soWW_ZqdvupLJVpwj8kI-118" vertex="1">
          <mxGeometry y="70" width="330" height="20" as="geometry" />
        </mxCell>
        <mxCell id="OQkfyNVYAQuDEGS6hGE0-0" value="+ add_user(user: User): void &#xa;+ Remove_user(user: User): void &#xa;+ find_user_by_email(email: User): user&#xa;+ check_password(user: User, password: string): bool&#xa;+check_PressCart(User:string):user" style="text;align=left;verticalAlign=top;spacingLeft=4;spacingRight=4;overflow=hidden;rotatable=0;points=[[0,0.5],[1,0.5]];portConstraint=eastwest;" parent="soWW_ZqdvupLJVpwj8kI-118" vertex="1">
          <mxGeometry y="90" width="330" height="86" as="geometry" />
        </mxCell>
        <mxCell id="soWW_ZqdvupLJVpwj8kI-125" value="database repos clients" style="swimlane;fontStyle=2;align=center;verticalAlign=top;childLayout=stackLayout;horizontal=1;startSize=26;horizontalStack=0;resizeParent=1;resizeLast=0;collapsible=1;marginBottom=0;rounded=0;shadow=0;strokeWidth=1;" parent="WIyWlLk6GJQsqaUBKTNV-1" vertex="1">
          <mxGeometry x="220" y="1316" width="200" height="220" as="geometry">
            <mxRectangle x="200" y="60" width="160" height="26" as="alternateBounds" />
          </mxGeometry>
        </mxCell>
        <mxCell id="soWW_ZqdvupLJVpwj8kI-130" value="+ListUsers: List&lt;Users&gt;" style="text;align=left;verticalAlign=top;spacingLeft=4;spacingRight=4;overflow=hidden;rotatable=0;points=[[0,0.5],[1,0.5]];portConstraint=eastwest;" parent="soWW_ZqdvupLJVpwj8kI-125" vertex="1">
          <mxGeometry y="26" width="200" height="26" as="geometry" />
        </mxCell>
        <mxCell id="soWW_ZqdvupLJVpwj8kI-127" value="" style="line;html=1;strokeWidth=1;align=left;verticalAlign=middle;spacingTop=-1;spacingLeft=3;spacingRight=3;rotatable=0;labelPosition=right;points=[];portConstraint=eastwest;" parent="soWW_ZqdvupLJVpwj8kI-125" vertex="1">
          <mxGeometry y="52" width="200" height="20" as="geometry" />
        </mxCell>
        <mxCell id="soWW_ZqdvupLJVpwj8kI-128" value="+AddUser(sampleUser:user)" style="text;align=left;verticalAlign=top;spacingLeft=4;spacingRight=4;overflow=hidden;rotatable=0;points=[[0,0.5],[1,0.5]];portConstraint=eastwest;" parent="soWW_ZqdvupLJVpwj8kI-125" vertex="1">
          <mxGeometry y="72" width="200" height="20" as="geometry" />
        </mxCell>
        <mxCell id="soWW_ZqdvupLJVpwj8kI-129" value="+DeleteUser(sampleUser:user)" style="text;align=left;verticalAlign=top;spacingLeft=4;spacingRight=4;overflow=hidden;rotatable=0;points=[[0,0.5],[1,0.5]];portConstraint=eastwest;" parent="soWW_ZqdvupLJVpwj8kI-125" vertex="1">
          <mxGeometry y="92" width="200" height="20" as="geometry" />
        </mxCell>
        <mxCell id="soWW_ZqdvupLJVpwj8kI-131" value="+GetUser(userID:integet): user" style="text;align=left;verticalAlign=top;spacingLeft=4;spacingRight=4;overflow=hidden;rotatable=0;points=[[0,0.5],[1,0.5]];portConstraint=eastwest;" parent="soWW_ZqdvupLJVpwj8kI-125" vertex="1">
          <mxGeometry y="112" width="200" height="20" as="geometry" />
        </mxCell>
        <mxCell id="soWW_ZqdvupLJVpwj8kI-133" style="edgeStyle=orthogonalEdgeStyle;rounded=0;orthogonalLoop=1;jettySize=auto;html=1;exitX=1;exitY=0.5;exitDx=0;exitDy=0;" parent="WIyWlLk6GJQsqaUBKTNV-1" source="soWW_ZqdvupLJVpwj8kI-2" target="OQkfyNVYAQuDEGS6hGE0-0" edge="1">
          <mxGeometry relative="1" as="geometry">
            <Array as="points">
              <mxPoint x="350" y="795" />
              <mxPoint x="350" y="710" />
              <mxPoint x="518" y="710" />
              <mxPoint x="518" y="560" />
            </Array>
          </mxGeometry>
        </mxCell>
        <mxCell id="FJHWvXAE9Rc0Vym_E8ke-0" value="News Info" style="swimlane;fontStyle=2;align=center;verticalAlign=top;childLayout=stackLayout;horizontal=1;startSize=26;horizontalStack=0;resizeParent=1;resizeLast=0;collapsible=1;marginBottom=0;rounded=0;shadow=0;strokeWidth=1;" parent="WIyWlLk6GJQsqaUBKTNV-1" vertex="1">
          <mxGeometry x="1510" y="395" width="210" height="150" as="geometry">
            <mxRectangle x="200" y="60" width="160" height="26" as="alternateBounds" />
          </mxGeometry>
        </mxCell>
        <mxCell id="FJHWvXAE9Rc0Vym_E8ke-1" value="+check: integer" style="text;align=left;verticalAlign=top;spacingLeft=4;spacingRight=4;overflow=hidden;rotatable=0;points=[[0,0.5],[1,0.5]];portConstraint=eastwest;rounded=0;shadow=0;html=0;" parent="FJHWvXAE9Rc0Vym_E8ke-0" vertex="1">
          <mxGeometry y="26" width="210" height="26" as="geometry" />
        </mxCell>
        <mxCell id="FJHWvXAE9Rc0Vym_E8ke-2" value="+NewsID: integer" style="text;align=left;verticalAlign=top;spacingLeft=4;spacingRight=4;overflow=hidden;rotatable=0;points=[[0,0.5],[1,0.5]];portConstraint=eastwest;" parent="FJHWvXAE9Rc0Vym_E8ke-0" vertex="1">
          <mxGeometry y="52" width="210" height="26" as="geometry" />
        </mxCell>
        <mxCell id="FJHWvXAE9Rc0Vym_E8ke-4" value="+text_of_info:string" style="text;align=left;verticalAlign=top;spacingLeft=4;spacingRight=4;overflow=hidden;rotatable=0;points=[[0,0.5],[1,0.5]];portConstraint=eastwest;" parent="FJHWvXAE9Rc0Vym_E8ke-0" vertex="1">
          <mxGeometry y="78" width="210" height="26" as="geometry" />
        </mxCell>
        <mxCell id="FJHWvXAE9Rc0Vym_E8ke-5" value="" style="line;html=1;strokeWidth=1;align=left;verticalAlign=middle;spacingTop=-1;spacingLeft=3;spacingRight=3;rotatable=0;labelPosition=right;points=[];portConstraint=eastwest;" parent="FJHWvXAE9Rc0Vym_E8ke-0" vertex="1">
          <mxGeometry y="104" width="210" height="20" as="geometry" />
        </mxCell>
        <mxCell id="FJHWvXAE9Rc0Vym_E8ke-6" value="" style="endArrow=none;html=1;rounded=0;entryX=-0.013;entryY=-0.185;entryDx=0;entryDy=0;exitX=1;exitY=0.5;exitDx=0;exitDy=0;entryPerimeter=0;" parent="WIyWlLk6GJQsqaUBKTNV-1" source="soWW_ZqdvupLJVpwj8kI-64" target="FJHWvXAE9Rc0Vym_E8ke-4" edge="1">
          <mxGeometry width="50" height="50" relative="1" as="geometry">
            <mxPoint x="1130" y="840" as="sourcePoint" />
            <mxPoint x="1210" y="840" as="targetPoint" />
            <Array as="points" />
          </mxGeometry>
        </mxCell>
        <mxCell id="FJHWvXAE9Rc0Vym_E8ke-7" value="1" style="edgeLabel;html=1;align=center;verticalAlign=middle;resizable=0;points=[];" parent="FJHWvXAE9Rc0Vym_E8ke-6" vertex="1" connectable="0">
          <mxGeometry x="-0.8073" y="-1" relative="1" as="geometry">
            <mxPoint as="offset" />
          </mxGeometry>
        </mxCell>
        <mxCell id="FJHWvXAE9Rc0Vym_E8ke-8" value="*" style="edgeLabel;html=1;align=center;verticalAlign=middle;resizable=0;points=[];" parent="FJHWvXAE9Rc0Vym_E8ke-6" vertex="1" connectable="0">
          <mxGeometry x="0.839" relative="1" as="geometry">
            <mxPoint as="offset" />
          </mxGeometry>
        </mxCell>
        <mxCell id="d6uZBGdbQgM-gS8DyZsZ-4" value="County" style="swimlane;fontStyle=2;align=center;verticalAlign=top;childLayout=stackLayout;horizontal=1;startSize=26;horizontalStack=0;resizeParent=1;resizeLast=0;collapsible=1;marginBottom=0;rounded=0;shadow=0;strokeWidth=1;" parent="WIyWlLk6GJQsqaUBKTNV-1" vertex="1">
          <mxGeometry x="1090" y="510" width="210" height="150" as="geometry">
            <mxRectangle x="200" y="60" width="160" height="26" as="alternateBounds" />
          </mxGeometry>
        </mxCell>
        <mxCell id="d6uZBGdbQgM-gS8DyZsZ-9" value="+time: integer" style="text;align=left;verticalAlign=top;spacingLeft=4;spacingRight=4;overflow=hidden;rotatable=0;points=[[0,0.5],[1,0.5]];portConstraint=eastwest;rounded=0;shadow=0;html=0;" parent="d6uZBGdbQgM-gS8DyZsZ-4" vertex="1">
          <mxGeometry y="26" width="210" height="26" as="geometry" />
        </mxCell>
        <mxCell id="d6uZBGdbQgM-gS8DyZsZ-6" value="+countreName: string" style="text;align=left;verticalAlign=top;spacingLeft=4;spacingRight=4;overflow=hidden;rotatable=0;points=[[0,0.5],[1,0.5]];portConstraint=eastwest;" parent="d6uZBGdbQgM-gS8DyZsZ-4" vertex="1">
          <mxGeometry y="52" width="210" height="26" as="geometry" />
        </mxCell>
        <mxCell id="d6uZBGdbQgM-gS8DyZsZ-10" value="+topic: integer" style="text;align=left;verticalAlign=top;spacingLeft=4;spacingRight=4;overflow=hidden;rotatable=0;points=[[0,0.5],[1,0.5]];portConstraint=eastwest;rounded=0;shadow=0;html=0;" parent="d6uZBGdbQgM-gS8DyZsZ-4" vertex="1">
          <mxGeometry y="78" width="210" height="26" as="geometry" />
        </mxCell>
        <mxCell id="d6uZBGdbQgM-gS8DyZsZ-11" value="+formar V/P: string" style="text;align=left;verticalAlign=top;spacingLeft=4;spacingRight=4;overflow=hidden;rotatable=0;points=[[0,0.5],[1,0.5]];portConstraint=eastwest;rounded=0;shadow=0;html=0;" parent="d6uZBGdbQgM-gS8DyZsZ-4" vertex="1">
          <mxGeometry y="104" width="210" height="26" as="geometry" />
        </mxCell>
        <mxCell id="d6uZBGdbQgM-gS8DyZsZ-8" value="" style="line;html=1;strokeWidth=1;align=left;verticalAlign=middle;spacingTop=-1;spacingLeft=3;spacingRight=3;rotatable=0;labelPosition=right;points=[];portConstraint=eastwest;" parent="d6uZBGdbQgM-gS8DyZsZ-4" vertex="1">
          <mxGeometry y="130" width="210" height="20" as="geometry" />
        </mxCell>
        <mxCell id="GcpcCNUzEOuJ6NHcSgfP-1" value="InfoRepository" style="swimlane;fontStyle=2;align=center;verticalAlign=top;childLayout=stackLayout;horizontal=1;startSize=26;horizontalStack=0;resizeParent=1;resizeLast=0;collapsible=1;marginBottom=0;rounded=0;shadow=0;strokeWidth=1;" parent="WIyWlLk6GJQsqaUBKTNV-1" vertex="1">
          <mxGeometry x="1320" y="1260" width="230" height="160" as="geometry">
            <mxRectangle x="200" y="60" width="160" height="26" as="alternateBounds" />
          </mxGeometry>
        </mxCell>
        <mxCell id="GcpcCNUzEOuJ6NHcSgfP-3" value="-info: List&lt;Info&gt;" style="text;align=left;verticalAlign=top;spacingLeft=4;spacingRight=4;overflow=hidden;rotatable=0;points=[[0,0.5],[1,0.5]];portConstraint=eastwest;" parent="GcpcCNUzEOuJ6NHcSgfP-1" vertex="1">
          <mxGeometry y="26" width="230" height="26" as="geometry" />
        </mxCell>
        <mxCell id="GcpcCNUzEOuJ6NHcSgfP-6" value="" style="line;html=1;strokeWidth=1;align=left;verticalAlign=middle;spacingTop=-1;spacingLeft=3;spacingRight=3;rotatable=0;labelPosition=right;points=[];portConstraint=eastwest;" parent="GcpcCNUzEOuJ6NHcSgfP-1" vertex="1">
          <mxGeometry y="52" width="230" height="20" as="geometry" />
        </mxCell>
        <mxCell id="oHDuHuiMrBBlrbrUhu9S-0" value="+ add_info(info: info): void &#xa;+ remove_info(info: Info): void &#xa;+ find_info_by_id(infoD: integer): movir" style="text;align=left;verticalAlign=top;spacingLeft=4;spacingRight=4;overflow=hidden;rotatable=0;points=[[0,0.5],[1,0.5]];portConstraint=eastwest;" parent="GcpcCNUzEOuJ6NHcSgfP-1" vertex="1">
          <mxGeometry y="72" width="230" height="86" as="geometry" />
        </mxCell>
        <mxCell id="oHDuHuiMrBBlrbrUhu9S-2" value="" style="endArrow=classic;startArrow=classic;html=1;rounded=0;exitX=-0.004;exitY=0.1;exitDx=0;exitDy=0;exitPerimeter=0;" parent="WIyWlLk6GJQsqaUBKTNV-1" source="GcpcCNUzEOuJ6NHcSgfP-1" edge="1">
          <mxGeometry width="50" height="50" relative="1" as="geometry">
            <mxPoint x="980" y="1110" as="sourcePoint" />
            <mxPoint x="1050" y="960" as="targetPoint" />
          </mxGeometry>
        </mxCell>
        <mxCell id="oHDuHuiMrBBlrbrUhu9S-16" value="" style="endArrow=diamondThin;endFill=1;endSize=24;html=1;rounded=0;entryX=0.839;entryY=-0.011;entryDx=0;entryDy=0;exitX=0.25;exitY=1;exitDx=0;exitDy=0;entryPerimeter=0;" parent="WIyWlLk6GJQsqaUBKTNV-1" source="d6uZBGdbQgM-gS8DyZsZ-4" target="soWW_ZqdvupLJVpwj8kI-62" edge="1">
          <mxGeometry width="160" relative="1" as="geometry">
            <mxPoint x="640" y="860" as="sourcePoint" />
            <mxPoint x="800" y="860" as="targetPoint" />
          </mxGeometry>
        </mxCell>
        <mxCell id="oHDuHuiMrBBlrbrUhu9S-17" value="Info Repository" style="swimlane;fontStyle=2;align=center;verticalAlign=top;childLayout=stackLayout;horizontal=1;startSize=26;horizontalStack=0;resizeParent=1;resizeLast=0;collapsible=1;marginBottom=0;rounded=0;shadow=0;strokeWidth=1;" parent="WIyWlLk6GJQsqaUBKTNV-1" vertex="1">
          <mxGeometry x="1620" y="680" width="230" height="160" as="geometry">
            <mxRectangle x="200" y="60" width="160" height="26" as="alternateBounds" />
          </mxGeometry>
        </mxCell>
        <mxCell id="oHDuHuiMrBBlrbrUhu9S-18" value="-info: List&lt;Info&gt;" style="text;align=left;verticalAlign=top;spacingLeft=4;spacingRight=4;overflow=hidden;rotatable=0;points=[[0,0.5],[1,0.5]];portConstraint=eastwest;" parent="oHDuHuiMrBBlrbrUhu9S-17" vertex="1">
          <mxGeometry y="26" width="230" height="26" as="geometry" />
        </mxCell>
        <mxCell id="oHDuHuiMrBBlrbrUhu9S-19" value="" style="line;html=1;strokeWidth=1;align=left;verticalAlign=middle;spacingTop=-1;spacingLeft=3;spacingRight=3;rotatable=0;labelPosition=right;points=[];portConstraint=eastwest;" parent="oHDuHuiMrBBlrbrUhu9S-17" vertex="1">
          <mxGeometry y="52" width="230" height="20" as="geometry" />
        </mxCell>
        <mxCell id="oHDuHuiMrBBlrbrUhu9S-20" value="+ add_info(info: Info): void &#xa;+ remove_info(info: Info): void &#xa;+ get_info(newsID: integer): List&lt;Info&gt;" style="text;align=left;verticalAlign=top;spacingLeft=4;spacingRight=4;overflow=hidden;rotatable=0;points=[[0,0.5],[1,0.5]];portConstraint=eastwest;" parent="oHDuHuiMrBBlrbrUhu9S-17" vertex="1">
          <mxGeometry y="72" width="230" height="86" as="geometry" />
        </mxCell>
        <mxCell id="oHDuHuiMrBBlrbrUhu9S-21" value="" style="endArrow=classic;startArrow=classic;html=1;rounded=0;exitX=0.445;exitY=-0.012;exitDx=0;exitDy=0;exitPerimeter=0;" parent="WIyWlLk6GJQsqaUBKTNV-1" source="oHDuHuiMrBBlrbrUhu9S-17" edge="1">
          <mxGeometry width="50" height="50" relative="1" as="geometry">
            <mxPoint x="1819" y="701" as="sourcePoint" />
            <mxPoint x="1610" y="545" as="targetPoint" />
          </mxGeometry>
        </mxCell>
        <mxCell id="XLzLsqz1LYWBCA_VrKFj-0" value="NewsRepositories" style="swimlane;fontStyle=2;align=center;verticalAlign=top;childLayout=stackLayout;horizontal=1;startSize=26;horizontalStack=0;resizeParent=1;resizeLast=0;collapsible=1;marginBottom=0;rounded=0;shadow=0;strokeWidth=1;" parent="WIyWlLk6GJQsqaUBKTNV-1" vertex="1">
          <mxGeometry x="1250" y="-40" width="290" height="160" as="geometry">
            <mxRectangle x="200" y="60" width="160" height="26" as="alternateBounds" />
          </mxGeometry>
        </mxCell>
        <mxCell id="XLzLsqz1LYWBCA_VrKFj-1" value="-session: List&lt;Sesssion&gt;" style="text;align=left;verticalAlign=top;spacingLeft=4;spacingRight=4;overflow=hidden;rotatable=0;points=[[0,0.5],[1,0.5]];portConstraint=eastwest;" parent="XLzLsqz1LYWBCA_VrKFj-0" vertex="1">
          <mxGeometry y="26" width="290" height="26" as="geometry" />
        </mxCell>
        <mxCell id="XLzLsqz1LYWBCA_VrKFj-2" value="" style="line;html=1;strokeWidth=1;align=left;verticalAlign=middle;spacingTop=-1;spacingLeft=3;spacingRight=3;rotatable=0;labelPosition=right;points=[];portConstraint=eastwest;" parent="XLzLsqz1LYWBCA_VrKFj-0" vertex="1">
          <mxGeometry y="52" width="290" height="20" as="geometry" />
        </mxCell>
        <mxCell id="XLzLsqz1LYWBCA_VrKFj-3" value="+ add_session(session: Session): void &#xa;+ remove_session(session: Session): void &#xa;+ get_session(movieID: integer): List&lt;Session&gt;" style="text;align=left;verticalAlign=top;spacingLeft=4;spacingRight=4;overflow=hidden;rotatable=0;points=[[0,0.5],[1,0.5]];portConstraint=eastwest;" parent="XLzLsqz1LYWBCA_VrKFj-0" vertex="1">
          <mxGeometry y="72" width="290" height="86" as="geometry" />
        </mxCell>
        <mxCell id="XLzLsqz1LYWBCA_VrKFj-11" style="edgeStyle=orthogonalEdgeStyle;rounded=0;orthogonalLoop=1;jettySize=auto;html=1;exitX=0.016;exitY=0.167;exitDx=0;exitDy=0;entryX=1;entryY=0.5;entryDx=0;entryDy=0;exitPerimeter=0;" parent="WIyWlLk6GJQsqaUBKTNV-1" source="XLzLsqz1LYWBCA_VrKFj-3" target="XLzLsqz1LYWBCA_VrKFj-17" edge="1">
          <mxGeometry relative="1" as="geometry">
            <mxPoint x="1069.53" y="-23" as="sourcePoint" />
            <mxPoint x="1080" y="60" as="targetPoint" />
          </mxGeometry>
        </mxCell>
        <mxCell id="XLzLsqz1LYWBCA_VrKFj-12" value="use" style="edgeLabel;html=1;align=center;verticalAlign=middle;resizable=0;points=[];" parent="XLzLsqz1LYWBCA_VrKFj-11" vertex="1" connectable="0">
          <mxGeometry x="-0.2622" y="1" relative="1" as="geometry">
            <mxPoint as="offset" />
          </mxGeometry>
        </mxCell>
        <mxCell id="XLzLsqz1LYWBCA_VrKFj-14" value="" style="endArrow=classic;startArrow=classic;html=1;rounded=0;exitX=0.445;exitY=-0.012;exitDx=0;exitDy=0;exitPerimeter=0;entryX=0.5;entryY=1;entryDx=0;entryDy=0;" parent="WIyWlLk6GJQsqaUBKTNV-1" target="XLzLsqz1LYWBCA_VrKFj-0" edge="1">
          <mxGeometry width="50" height="50" relative="1" as="geometry">
            <mxPoint x="1182" y="510" as="sourcePoint" />
            <mxPoint x="1070" y="377" as="targetPoint" />
          </mxGeometry>
        </mxCell>
        <mxCell id="XLzLsqz1LYWBCA_VrKFj-15" value="Session service" style="swimlane;fontStyle=2;align=center;verticalAlign=top;childLayout=stackLayout;horizontal=1;startSize=26;horizontalStack=0;resizeParent=1;resizeLast=0;collapsible=1;marginBottom=0;rounded=0;shadow=0;strokeWidth=1;" parent="WIyWlLk6GJQsqaUBKTNV-1" vertex="1">
          <mxGeometry x="650" y="30" width="380" height="80" as="geometry">
            <mxRectangle x="200" y="60" width="160" height="26" as="alternateBounds" />
          </mxGeometry>
        </mxCell>
        <mxCell id="XLzLsqz1LYWBCA_VrKFj-16" value="" style="line;html=1;strokeWidth=1;align=left;verticalAlign=middle;spacingTop=-1;spacingLeft=3;spacingRight=3;rotatable=0;labelPosition=right;points=[];portConstraint=eastwest;" parent="XLzLsqz1LYWBCA_VrKFj-15" vertex="1">
          <mxGeometry y="26" width="380" height="20" as="geometry" />
        </mxCell>
        <mxCell id="XLzLsqz1LYWBCA_VrKFj-17" value="+Preprocessing_SessionTime(List&lt;Session&gt;,time:integer);bool" style="text;align=left;verticalAlign=top;spacingLeft=4;spacingRight=4;overflow=hidden;rotatable=0;points=[[0,0.5],[1,0.5]];portConstraint=eastwest;" parent="XLzLsqz1LYWBCA_VrKFj-15" vertex="1">
          <mxGeometry y="46" width="380" height="20" as="geometry" />
        </mxCell>
        <mxCell id="XLzLsqz1LYWBCA_VrKFj-23" value="«interface»&lt;br&gt;&lt;b&gt;World News&lt;/b&gt;" style="html=1;whiteSpace=wrap;" parent="WIyWlLk6GJQsqaUBKTNV-1" vertex="1">
          <mxGeometry x="1654" y="100" width="110" height="50" as="geometry" />
        </mxCell>
        <mxCell id="XLzLsqz1LYWBCA_VrKFj-24" value="" style="endArrow=block;dashed=1;endFill=0;endSize=12;html=1;rounded=0;entryX=0.5;entryY=0;entryDx=0;entryDy=0;exitX=1;exitY=-0.005;exitDx=0;exitDy=0;exitPerimeter=0;" parent="WIyWlLk6GJQsqaUBKTNV-1" source="XLzLsqz1LYWBCA_VrKFj-3" target="XLzLsqz1LYWBCA_VrKFj-23" edge="1">
          <mxGeometry width="160" relative="1" as="geometry">
            <mxPoint x="1862" y="749" as="sourcePoint" />
            <mxPoint x="1945" y="650" as="targetPoint" />
          </mxGeometry>
        </mxCell>
        <mxCell id="hyz9-EyZkYR4c80KbrGw-0" value="«interface»&lt;br&gt;&lt;b&gt;InfoBase&lt;/b&gt;" style="html=1;whiteSpace=wrap;" parent="WIyWlLk6GJQsqaUBKTNV-1" vertex="1">
          <mxGeometry x="1655" y="1160" width="166" height="50" as="geometry" />
        </mxCell>
        <mxCell id="hyz9-EyZkYR4c80KbrGw-1" value="" style="endArrow=block;dashed=1;endFill=0;endSize=12;html=1;rounded=0;exitX=0.25;exitY=0;exitDx=0;exitDy=0;entryX=0.5;entryY=0;entryDx=0;entryDy=0;" parent="WIyWlLk6GJQsqaUBKTNV-1" source="hyz9-EyZkYR4c80KbrGw-0" target="GcpcCNUzEOuJ6NHcSgfP-1" edge="1">
          <mxGeometry width="160" relative="1" as="geometry">
            <mxPoint x="1240" y="920" as="sourcePoint" />
            <mxPoint x="1400" y="920" as="targetPoint" />
          </mxGeometry>
        </mxCell>
        <mxCell id="hyz9-EyZkYR4c80KbrGw-2" value="" style="endArrow=block;dashed=1;endFill=0;endSize=12;html=1;rounded=0;exitX=0.5;exitY=0;exitDx=0;exitDy=0;" parent="WIyWlLk6GJQsqaUBKTNV-1" source="hyz9-EyZkYR4c80KbrGw-0" target="oHDuHuiMrBBlrbrUhu9S-20" edge="1">
          <mxGeometry width="160" relative="1" as="geometry">
            <mxPoint x="1240" y="920" as="sourcePoint" />
            <mxPoint x="1400" y="920" as="targetPoint" />
          </mxGeometry>
        </mxCell>
      </root>
    </mxGraphModel>
  </diagram>
  <diagram id="8OtFGYnVxqx-SVwnXVTY" name="Страница — 2">
    <mxGraphModel dx="945" dy="1895" grid="0" gridSize="10" guides="1" tooltips="1" connect="1" arrows="1" fold="1" page="0" pageScale="1" pageWidth="827" pageHeight="1169" math="0" shadow="0">
      <root>
        <mxCell id="0" />
        <mxCell id="1" parent="0" />
      </root>
    </mxGraphModel>
  </diagram>
</mxfile>
